<?xml version="1.0" standalone="no"?>
<!DOCTYPE svg PUBLIC "-//W3C//DTD SVG 20010904//EN"
 "http://www.w3.org/TR/2001/REC-SVG-20010904/DTD/svg10.dtd">
<svg version="1.0" xmlns="http://www.w3.org/2000/svg"
 width="192.000000pt" height="192.000000pt" viewBox="0 0 192.000000 192.000000"
 preserveAspectRatio="xMidYMid meet">
<g transform="translate(0.000000,192.000000) scale(0.100000,-0.100000)"
fill="#000000" stroke="none">
<path d="M741 1478 c-117 -194 -218 -362 -224 -373 -7 -11 -19 -31 -28 -45 -9
-14 -28 -46 -41 -71 l-26 -45 77 -46 c98 -59 277 -166 316 -188 17 -9 54 -32
84 -49 30 -18 61 -30 70 -28 12 3 462 267 518 304 9 6 -11 47 -72 148 -47 77
-90 149 -97 160 -109 186 -351 581 -357 583 -4 1 -103 -156 -220 -350z"/>
<path d="M430 834 c0 -5 84 -126 186 -269 102 -143 219 -308 260 -368 41 -59
79 -107 83 -107 4 0 49 57 98 127 50 71 170 240 267 376 175 247 176 248 128
220 -26 -15 -125 -74 -221 -130 -95 -57 -175 -103 -178 -103 -2 0 -21 -11 -41
-25 -20 -14 -43 -25 -51 -25 -8 0 -68 32 -133 71 -66 39 -129 76 -141 83 -54
28 -224 131 -239 144 -10 8 -18 11 -18 6z"/>
</g>
</svg>
